<?xml version="1.0" encoding="utf-8"?>
<!-- Generator: Adobe Illustrator 24.0.2, SVG Export Plug-In . SVG Version: 6.00 Build 0)  -->
<svg version="1.1" id="Слой_1" xmlns="http://www.w3.org/2000/svg" xmlns:xlink="http://www.w3.org/1999/xlink" x="0px" y="0px"
	 viewBox="0 0 768 768" style="enable-background:new 0 0 768 768;" xml:space="preserve">
<style type="text/css">
	.st0{fill:#FFFFFF;}
	.st1{fill:#0000CC;}
</style>
<g id="XMLID_1_">
	<path class="st0" d="M384,767.5c-51.77,0-102-10.14-149.28-30.14c-45.67-19.32-86.68-46.97-121.9-82.19
		c-35.22-35.22-62.87-76.23-82.19-121.9C10.64,486,0.5,435.77,0.5,384s10.14-102,30.14-149.28c19.32-45.67,46.97-86.68,82.19-121.9
		s76.23-62.87,121.9-82.19C282,10.64,332.23,0.5,384,0.5s102,10.14,149.28,30.14c45.67,19.32,86.68,46.97,121.9,82.19
		c35.22,35.22,62.87,76.23,82.19,121.9c20,47.28,30.14,97.5,30.14,149.28s-10.14,102-30.14,149.28
		c-19.32,45.67-46.97,86.68-82.19,121.9c-35.22,35.22-76.23,62.87-121.9,82.19C486,757.36,435.77,767.5,384,767.5z"/>
	<path d="M384,1c51.71,0,101.86,10.13,149.08,30.1c45.61,19.29,86.57,46.91,121.74,82.08s62.79,76.13,82.08,121.74
		C756.87,282.14,767,332.29,767,384s-10.13,101.86-30.1,149.08c-19.29,45.61-46.91,86.57-82.08,121.74s-76.13,62.79-121.74,82.08
		C485.86,756.87,435.71,767,384,767s-101.86-10.13-149.08-30.1c-45.61-19.29-86.57-46.91-121.74-82.08S50.39,578.69,31.1,533.08
		C11.13,485.86,1,435.71,1,384s10.13-101.86,30.1-149.08c19.29-45.61,46.91-86.57,82.08-121.74s76.13-62.79,121.74-82.08
		C282.14,11.13,332.29,1,384,1 M384,0C171.92,0,0,171.92,0,384s171.92,384,384,384s384-171.92,384-384S596.08,0,384,0L384,0z"/>
</g>
<g>
	<path class="st1" d="M67.69,477.55V291.66H36.5v-31.01h88.58c26.02,0,45.51,1.84,58.46,5.52c12.95,3.68,23.79,12.03,32.53,25.04
		c8.73,13.01,13.1,28.37,13.1,46.07c0,14.14-2.88,26.82-8.64,38.05c-5.76,11.23-12.89,19.52-21.39,24.86
		c-8.5,5.35-18.06,8.94-28.69,10.78c-10.63,1.84-26.71,2.76-48.21,2.76h-17.11v63.8h32.08v31.01H36.5v-31.01H67.69z M105.11,383.8
		h21.39c24.36,0,41.23-3.48,50.62-10.43c9.38-6.95,14.08-19.22,14.08-36.8c0-11.17-2.5-20.43-7.49-27.8
		c-4.99-7.37-11.17-12.06-18.54-14.08c-7.37-2.02-19.67-3.03-36.89-3.03h-23.17V383.8z"/>
	<path class="st1" d="M277.1,477.55V291.66h-34.04v-31.01h100.7c21.03,0,37.72,1.63,50.08,4.9c12.36,3.27,22.57,10.16,30.65,20.67
		c8.08,10.52,12.12,23.61,12.12,39.29c0,32.79-17.03,53.4-51.1,61.84l43.79,90.19h30.3v31.01h-53.7l-56.45-115.84h-34.93v84.83
		h31.72v31.01H243.06v-31.01H277.1z M314.52,361.7h29.23c14.14,0,24.56-0.92,31.28-2.76c6.71-1.84,12.21-5.58,16.49-11.23
		c4.28-5.64,6.42-13.22,6.42-22.72c0-8.08-2.17-14.91-6.51-20.5c-4.34-5.58-9.69-9.12-16.04-10.6c-6.36-1.48-16.07-2.23-29.14-2.23
		h-31.72V361.7z"/>
	<path class="st1" d="M469.76,383.45c0-36,11.76-66.12,35.29-90.36s54.18-36.36,91.96-36.36c38.14,0,69.21,12.12,93.21,36.36
		c24,24.24,36,54.6,36,91.07c0,37.19-12.21,67.88-36.62,92.05c-24.42,24.18-55.46,36.27-93.12,36.27c-24,0-46.07-5.73-66.21-17.2
		c-20.14-11.46-35.26-27.45-45.36-47.94C474.81,426.84,469.76,405.54,469.76,383.45z M510.57,383.62c0,27.21,7.96,50.02,23.88,68.44
		c15.92,18.42,36.83,27.62,62.73,27.62c25.66,0,46.75-9.42,63.27-28.25c16.51-18.83,24.77-41.32,24.77-67.46
		c0-26.38-8.41-48.68-25.22-66.92c-16.81-18.24-37.93-27.36-63.36-27.36c-25.31,0-45.98,8.97-62.02,26.91
		C518.59,334.55,510.57,356.89,510.57,383.62z"/>
</g>
<g>
</g>
<g>
</g>
<g>
</g>
<g>
</g>
<g>
</g>
<g>
</g>
<g>
</g>
<g>
</g>
<g>
</g>
<g>
</g>
<g>
</g>
<g>
</g>
<g>
</g>
<g>
</g>
<g>
</g>
</svg>
