<?xml version="1.0" encoding="utf-8"?>
<!-- Generator: Adobe Illustrator 24.0.2, SVG Export Plug-In . SVG Version: 6.00 Build 0)  -->
<svg version="1.1" xmlns="http://www.w3.org/2000/svg" xmlns:xlink="http://www.w3.org/1999/xlink" x="0px" y="0px"
	 viewBox="0 0 1223.28 457" style="enable-background:new 0 0 1223.28 457;" xml:space="preserve">
<style type="text/css">
	.st0{fill:#312783;}
	.st1{fill:#020203;}
	.st2{fill:#FFFFFF;}
	.st3{font-family:'ArialRoundedMTBold';}
	.st4{font-size:193px;}
	.st5{letter-spacing:8.13;}
</style>
<g id="Слой_2">
	<path class="st0" d="M623.59,80.11c-0.14,1.83-0.87,8.83-6.68,14.39c-6.17,5.91-13.71,6.02-16.05,6.06
		c-2.02,0.03-10.12,0.03-16.55-5.86c-1.32-1.21-4.41-4.35-5.99-9.12c-1.35-4.07-1.76-9.78-1.79-9.98c0,0-539.36,0-539.41,0
		c0-4.59,0-9.18,0-13.77c0.03,0,550.97-0.3,550.97-0.3c0.02,0.25-1.38,11.08,3.69,17.77c0.77,1.01,3.51,4.63,7.78,4.76
		c3.56,0.11,6.78-2.23,8.27-4.76c0,0,1.01-1.71,1.79-8.64c0,0,4.93,0.03,14.36,0.1C623.86,73.89,623.72,77,623.59,80.11z"/>
	<path class="st1" d="M600.34,42.99c0.13-1.83,0.85-8.83,6.56-14.39c6.07-5.91,13.48-6.02,15.77-6.06
		c1.99-0.03,9.95-0.03,16.26,5.86c1.3,1.21,4.33,4.35,5.89,9.12c1.33,4.07,1.73,9.78,1.76,9.98c0,0,530.07,0,530.11,0
		c0,4.59,0,9.18,0,13.77c-0.03,0-541.48,0.3-541.48,0.3c-0.02-0.25,1.36-11.08-3.63-17.77c-0.76-1.01-3.45-4.63-7.64-4.76
		c-3.49-0.11-6.66,2.23-8.13,4.76c0,0-1,1.71-1.76,8.64c0,0-4.85-0.03-14.11-0.1C600.08,49.21,600.21,46.1,600.34,42.99z"/>
	<path class="st0" d="M626.22,416.59c-0.14,1.83-0.87,8.83-6.68,14.39c-6.17,5.91-13.71,6.02-16.05,6.06
		c-2.02,0.03-10.12,0.03-16.55-5.86c-1.32-1.21-4.41-4.35-5.99-9.12c-1.35-4.07-1.76-9.78-1.79-9.98c0,0-539.36,0-539.41,0
		c0-4.59,0-9.18,0-13.77c0.03,0,550.97-0.3,550.97-0.3c0.02,0.25-1.38,11.08,3.69,17.77c0.77,1.01,3.51,4.63,7.78,4.76
		c3.56,0.11,6.78-2.23,8.27-4.76c0,0,1.01-1.71,1.79-8.64c0,0,4.93,0.03,14.36,0.1C626.49,410.37,626.36,413.48,626.22,416.59z"/>
	<path class="st1" d="M602.97,379.47c0.13-1.83,0.85-8.83,6.56-14.39c6.07-5.91,13.48-6.02,15.77-6.06
		c1.99-0.03,9.95-0.03,16.26,5.86c1.3,1.21,4.33,4.35,5.89,9.12c1.33,4.07,1.73,9.78,1.76,9.98c0,0,530.07,0,530.11,0
		c0,4.59,0,9.18,0,13.77c-0.03,0-541.48,0.3-541.48,0.3c-0.02-0.25,1.36-11.08-3.63-17.77c-0.76-1.01-3.45-4.63-7.64-4.76
		c-3.49-0.11-6.66,2.23-8.13,4.76c0,0-1,1.71-1.76,8.64c0,0-4.85-0.03-14.11-0.1C602.71,385.69,602.84,382.58,602.97,379.47z"/>
</g>
<g id="Слой_3">
    <text transform="matrix(0.9836 0 0 1 80.9838 291.6271)"> <tspan x="150" y="0" class="st2 st3 st4 st5">PROCESS</tspan></text>
</g>
</svg>
